<svg width="144" height="22" viewBox="0 0 144 22" fill="none" xmlns="http://www.w3.org/2000/svg">
<path d="M0.769886 21V0.636363H5.07528V9.03835H13.8153V0.636363H18.1108V21H13.8153V12.5881H5.07528V21H0.769886ZM25.9659 0.636363V21H21.6605V0.636363H25.9659ZM29.5082 21V0.636363H33.8136V17.4503H42.5437V21H29.5082ZM52.6136 21H45.3949V0.636363H52.6733C54.7216 0.636363 56.4848 1.04403 57.9631 1.85938C59.4413 2.66809 60.5781 3.83144 61.3736 5.34943C62.1757 6.86742 62.5767 8.68371 62.5767 10.7983C62.5767 12.9195 62.1757 14.7424 61.3736 16.267C60.5781 17.7917 59.4347 18.9616 57.9432 19.777C56.4583 20.5923 54.6818 21 52.6136 21ZM49.7003 17.3111H52.4347C53.7074 17.3111 54.7779 17.0857 55.6463 16.6349C56.5213 16.1776 57.1776 15.4716 57.6151 14.517C58.0592 13.5559 58.2812 12.3163 58.2812 10.7983C58.2812 9.29356 58.0592 8.06392 57.6151 7.10938C57.1776 6.15483 56.5246 5.45218 55.6562 5.00142C54.7879 4.55066 53.7173 4.32528 52.4446 4.32528H49.7003V17.3111ZM84.479 10.8182C84.479 13.0388 84.0581 14.928 83.2163 16.4858C82.381 18.0436 81.2409 19.2334 79.7958 20.0554C78.3574 20.8707 76.7399 21.2784 74.9435 21.2784C73.1339 21.2784 71.5098 20.8674 70.0714 20.0455C68.6329 19.2235 67.4961 18.0336 66.6609 16.4759C65.8256 14.9181 65.408 13.0322 65.408 10.8182C65.408 8.59754 65.8256 6.70833 66.6609 5.15057C67.4961 3.5928 68.6329 2.40625 70.0714 1.59091C71.5098 0.768939 73.1339 0.357954 74.9435 0.357954C76.7399 0.357954 78.3574 0.768939 79.7958 1.59091C81.2409 2.40625 82.381 3.5928 83.2163 5.15057C84.0581 6.70833 84.479 8.59754 84.479 10.8182ZM80.114 10.8182C80.114 9.37973 79.8986 8.16667 79.4677 7.17898C79.0434 6.19129 78.4435 5.44224 77.668 4.93182C76.8924 4.4214 75.9843 4.16619 74.9435 4.16619C73.9028 4.16619 72.9947 4.4214 72.2191 4.93182C71.4435 5.44224 70.8403 6.19129 70.4094 7.17898C69.9852 8.16667 69.7731 9.37973 69.7731 10.8182C69.7731 12.2566 69.9852 13.4697 70.4094 14.4574C70.8403 15.4451 71.4435 16.1941 72.2191 16.7045C72.9947 17.215 73.9028 17.4702 74.9435 17.4702C75.9843 17.4702 76.8924 17.215 77.668 16.7045C78.4435 16.1941 79.0434 15.4451 79.4677 14.4574C79.8986 13.4697 80.114 12.2566 80.114 10.8182Z" fill="white"/>
<path d="M94.8871 21H87.6683V0.636363H94.9467C96.995 0.636363 98.7583 1.04403 100.237 1.85938C101.715 2.66809 102.852 3.83144 103.647 5.34943C104.449 6.86742 104.85 8.68371 104.85 10.7983C104.85 12.9195 104.449 14.7424 103.647 16.267C102.852 17.7917 101.708 18.9616 100.217 19.777C98.7318 20.5923 96.9553 21 94.8871 21ZM91.9737 17.3111H94.7081C95.9808 17.3111 97.0514 17.0857 97.9197 16.6349C98.7947 16.1776 99.451 15.4716 99.8885 14.517C100.333 13.5559 100.555 12.3163 100.555 10.7983C100.555 9.29356 100.333 8.06392 99.8885 7.10938C99.451 6.15483 98.7981 5.45218 97.9297 5.00142C97.0613 4.55066 95.9908 4.32528 94.718 4.32528H91.9737V17.3111ZM108.039 21V0.636363H121.761V4.18608H112.345V9.03835H121.055V12.5881H112.345V17.4503H121.801V21H108.039ZM128.863 0.636363L133.785 16.108H133.974L138.906 0.636363H143.678L136.658 21H131.11L124.08 0.636363H128.863Z" fill="#AD00FF"/>
</svg>
